<?xml version="1.0" encoding="UTF-8"?>
<svg xmlns="http://www.w3.org/2000/svg" xmlns:xlink="http://www.w3.org/1999/xlink" width="32px" height="32px" viewBox="0 0 32 31" version="1.1">
<g id="surface1">
<rect x="0" y="0" width="32" height="31" style="fill:rgb(14.901961%,30.588236%,52.549022%);fill-opacity:1;stroke:none;"/>
<path style=" stroke:none;fill-rule:nonzero;fill:rgb(100%,100%,100%);fill-opacity:1;" d="M 29.828125 11.53125 L 20.195312 2.054688 C 19.046875 0.925781 17.523438 0.304688 15.902344 0.304688 C 14.28125 0.304688 12.757812 0.925781 11.609375 2.054688 L 1.972656 11.53125 C 0.828125 12.660156 0.195312 14.160156 0.195312 15.757812 C 0.195312 17.351562 0.828125 18.847656 1.972656 19.976562 L 11.609375 29.457031 C 12.753906 30.585938 14.277344 31.207031 15.898438 31.207031 C 17.519531 31.207031 19.042969 30.585938 20.191406 29.457031 L 29.828125 19.976562 C 30.972656 18.851562 31.605469 17.351562 31.605469 15.757812 C 31.605469 14.160156 30.972656 12.660156 29.828125 11.53125 Z M 28.949219 19.109375 L 19.3125 28.589844 C 18.402344 29.488281 17.1875 29.980469 15.902344 29.980469 C 14.617188 29.980469 13.40625 29.488281 12.492188 28.589844 L 5.078125 21.292969 L 11.457031 21.292969 L 13.578125 24.914062 L 18.226562 24.914062 L 20.550781 20.953125 L 18.226562 16.996094 L 13.578125 16.996094 L 11.453125 20.609375 L 4.382812 20.609375 L 2.855469 19.109375 C 1.945312 18.214844 1.445312 17.023438 1.445312 15.757812 C 1.445312 14.488281 1.945312 13.296875 2.855469 12.402344 L 12.492188 2.921875 C 13.402344 2.027344 14.613281 1.535156 15.902344 1.535156 C 17.1875 1.535156 18.398438 2.027344 19.308594 2.921875 L 26.867188 10.355469 L 20.347656 10.355469 L 18.226562 6.734375 L 13.578125 6.734375 L 11.253906 10.695312 L 13.578125 14.652344 L 18.226562 14.652344 L 20.347656 11.035156 L 27.558594 11.035156 L 28.949219 12.398438 C 29.859375 13.296875 30.359375 14.488281 30.359375 15.753906 C 30.359375 17.023438 29.859375 18.214844 28.949219 19.109375 Z M 12.691406 20.953125 L 14.296875 18.21875 L 17.503906 18.21875 L 19.109375 20.953125 L 17.503906 23.6875 L 14.296875 23.6875 Z M 19.109375 10.695312 L 17.503906 13.429688 L 14.296875 13.429688 L 12.691406 10.695312 L 14.296875 7.960938 L 17.503906 7.960938 Z M 20.429688 12.726562 L 18.882812 15.363281 L 12.921875 15.363281 L 11.375 12.726562 L 7.820312 12.726562 L 6.042969 15.757812 L 7.820312 18.785156 L 11.375 18.785156 L 12.921875 16.148438 L 18.882812 16.148438 L 20.429688 18.785156 L 23.980469 18.785156 L 25.757812 15.757812 L 23.980469 12.726562 Z M 20.429688 12.726562 "/>
</g>
</svg>
